<svg viewBox="0 0 500 500" xmlns="http://www.w3.org/2000/svg"><defs><clipPath id="a"><path d="M0 0h500v500H0Z"/></clipPath></defs><g clip-path="url(#a)"><path fill="#FF3838" d="M121.99 0h255.97c67.37 0 121.99 54.61 121.99 121.99v255.97c0 67.37-54.62 121.99-121.99 121.99H121.98C54.6 499.95-.01 445.33-.01 377.96V121.98C-.01 54.6 54.6-.01 121.98-.01Z"/><path fill="#FFF" d="M408.881 205.024c-3.03-8.113-10.73-13.48-19.387-13.48h-83.738c-3.03 0-5.64-1.93-6.6-4.68l-30.12-85.154c-4.13-10.73-15.95-16.09-26.68-12.1 -5.64 2.06-10.04 6.46-12.1 11.96l-.14.13 -29.98 84.934c-1.1 2.61-3.58 4.53-6.6 4.53h-83.81c-11.42-.18-20.77 9.17-20.77 20.48 -.14 6.05 2.61 11.82 7.28 15.81l71.22 59.12c2.06 1.78 3.02 4.67 2.06 7.42l-29.98 89.78c-3.72 10.72 2.2 22.41 12.92 25.98 6.32 2.06 13.2.96 18.7-3.03l73.42-53.9c2.33-1.79 5.63-1.79 8.11 0l73.42 53.76c9.07 6.73 22 4.67 28.73-4.4 3.85-5.5 4.95-12.52 2.88-18.84l-29.98-89.86c-.97-2.75-.14-5.78 2.06-7.57l71.36-59.27c6.46-5.64 8.93-14.85 5.91-22.97l1.71 1.25Z"/></g></svg>