<svg viewBox="0 0 500 500" xmlns="http://www.w3.org/2000/svg"><path fill="#FFF" d="M490.72 181.854c-4.59-12.3-16.25-20.417-29.38-20.417H334.46c-4.59 0-8.55-2.92-10-7.09L278.83 25.31C272.58 9.05 254.66.93 238.41 6.97c-8.55 3.12-15.21 9.79-18.34 18.12l-.21.2 -45.42 128.68c-1.67 3.95-5.42 6.875-10 6.875H37.461C20.16 160.572 6 174.74 6 191.892c-.21 9.16 3.95 17.917 11.04 23.95l107.91 89.58c3.12 2.7 4.58 7.08 3.12 11.25l-45.42 136.04c-5.625 16.25 3.33 33.95 19.58 39.37 9.58 3.12 20 1.45 28.33-4.59l111.25-81.67c3.54-2.71 8.54-2.71 12.29 0l111.25 81.45c13.75 10.2 33.33 7.08 43.54-6.67 5.83-8.34 7.5-18.96 4.375-28.55l-45.42-136.15c-1.46-4.17-.21-8.75 3.12-11.46l108.125-89.791c9.79-8.55 13.54-22.5 8.95-34.8l2.6 1.89Z"/></svg>